<svg width="371" height="384" viewBox="0 0 371 384" fill="none" xmlns="http://www.w3.org/2000/svg">
<path d="M177 335C264.261 335 335 264.261 335 177C335 89.739 264.261 19 177 19C89.739 19 19 89.739 19 177C19 264.261 89.739 335 177 335Z" fill="#31343E"/>
<path d="M177.5 299C242.393 299 295 246.393 295 181.5C295 116.607 242.393 64 177.5 64C112.607 64 60 116.607 60 181.5C60 246.393 112.607 299 177.5 299Z" fill="#3A3E4A"/>
<path d="M177.5 295C242.393 295 295 242.393 295 177.5C295 112.607 242.393 60 177.5 60C112.607 60 60 112.607 60 177.5C60 242.393 112.607 295 177.5 295Z" fill="#262830"/>
<g opacity="0.4118">
<g opacity="0.4118">
<path opacity="0.4118" d="M143 310C186.078 310 221 254.036 221 185C221 115.964 186.078 60 143 60C99.9218 60 65 115.964 65 185C65 254.036 99.9218 310 143 310Z" fill="#262830"/>
</g>
</g>
<path d="M185 294C203.778 294 219 278.778 219 260C219 241.222 203.778 226 185 226C166.222 226 151 241.222 151 260C151 278.778 166.222 294 185 294Z" fill="url(#paint0_linear_683_144)"/>
<path d="M185 285.1C198.8 285.1 210.1 273.9 210.1 260C210.1 246.2 198.9 234.9 185 234.9C171.1 234.9 159.9 246.1 159.9 260C159.9 273.8 171.2 285.1 185 285.1Z" fill="white"/>
<path fill-rule="evenodd" clip-rule="evenodd" d="M183.9 243.6C182.4 243.8 181.1 244.4 180.1 245.5C179.3 246.3 178.6 247 177.8 247.8C177.4 248.2 177 248.6 176.6 249C176.2 249.4 175.8 249.8 175.4 250.2C175 250.6 174.7 251 174.3 251.4C173.7 252 173.1 252.6 172.5 253.2C172 253.7 171.6 254.2 171.2 254.6C170.9 254.9 170.7 255.1 170.4 255.4C169.4 256.7 168.8 258.2 168.8 259.8C168.8 259.9 168.8 260 168.8 260.1C168.8 261 169.1 261.9 169.5 262.8C169.8 263.3 170 263.8 170.4 264.2C170.6 264.5 170.8 264.5 171.1 264.3C171.2 264.3 171.2 264.2 171.3 264.2C171.6 263.9 171.9 263.6 172.2 263.3C172.6 262.9 173 262.4 173.4 262C173.8 261.6 174.3 261.1 174.7 260.6C174.9 260.4 175.1 260.2 175.3 260C175.7 259.5 176.2 259.1 176.6 258.6C177 258.1 177.5 257.7 177.9 257.3C178.3 256.9 178.9 256.3 179.3 255.8C179.8 255.3 180.2 254.9 180.6 254.4C181.2 253.8 181.8 253.2 182.3 252.6C182.7 252.2 183 251.9 183.4 251.5C183.9 251 184.4 250.5 184.9 250C185.4 249.5 185.8 249.2 186.2 248.7C187.1 247.8 188.1 246.8 189 245.8C189.1 245.7 189.1 245.7 189.2 245.6C189.4 245.3 189.4 245.2 189.2 245C188.8 244.7 188.3 244.4 187.8 244.1C186.9 243.7 186 243.5 185 243.5C184.5 243.5 184.2 243.6 183.9 243.6ZM192.2 249.7C191.7 249.7 191.3 249.8 191 250C190.6 250.2 190.3 250.4 190 250.7C190 250.8 189.9 250.8 189.9 250.8L188.4 252.3C187.9 252.8 187.4 253.3 186.8 253.9C186.4 254.3 185.9 254.8 185.5 255.2C185.1 255.6 184.6 256.1 184.1 256.6C183.6 257.1 183.1 257.5 182.7 258L181 259.7L177.8 262.9C176.4 264.3 175 265.7 173.6 267.1C173.3 267.4 173.3 267.4 173.6 267.7C174.3 268.4 174.9 269 175.6 269.7C176 270.1 176.5 270.4 177.1 270.5C177.6 270.6 178.2 270.6 178.7 270.4C179.1 270.3 179.5 270.1 179.8 269.8L181.5 268.2C181.9 267.8 182.3 267.5 182.7 267.1C183.5 266.3 184.2 265.6 185 264.8C185.6 264.2 186.3 263.6 186.9 263L189.5 260.5C190.3 259.7 191.1 258.9 191.9 258.1C192 258 192 258 192.1 257.9C192.2 257.9 192.3 257.8 192.4 257.9C192.5 257.9 192.6 257.9 192.7 258C192.8 258.1 192.8 258.1 192.9 258.2C193.3 258.8 193.5 259.5 193.5 260.3C193.5 260.4 193.5 260.6 193.5 260.7C193.4 261.4 193.1 262.1 192.6 262.7C192 263.3 191.4 264 190.7 264.6C190.3 265 189.8 265.5 189.4 265.9C188.8 266.5 188.3 267 187.7 267.6C187.6 267.7 187.5 267.8 187.4 267.9L186.8 268.5C186.4 268.9 185.9 269.3 185.5 269.8C185.1 270.3 184.6 270.7 184.2 271.2L184.1 271.3C183.6 271.8 183.1 272.2 182.7 272.7C182.5 272.9 182.3 273.1 182 273.4C181.6 273.8 181.2 274.2 180.9 274.6C180.7 274.8 180.7 275 180.9 275.2C181.3 275.5 181.8 275.8 182.3 276.1C183.5 276.6 184.8 276.8 186.2 276.6C187.5 276.4 188.7 275.9 189.7 275C190.4 274.4 191.1 273.6 191.8 272.9C192.3 272.4 192.8 271.9 193.3 271.4L194.7 269.9C195.1 269.5 195.6 269 196 268.6C196.4 268.2 197 267.6 197.5 267.1C198 266.6 198.5 266.1 199 265.6C199.4 265.2 199.8 264.8 200.1 264.3C200.7 263.4 201.1 262.3 201.2 261.2C201.3 260.6 201.3 260.1 201.2 259.5C201.1 258.5 200.7 257.6 200.1 256.7C199.7 256.1 199.2 255.6 198.7 255.1C197.3 253.7 195.9 252.3 194.6 250.9C194.3 250.6 193.9 250.3 193.5 250.1C193.1 249.9 192.7 249.8 192.2 249.8V249.7Z" fill="url(#paint1_linear_683_144)"/>
<path d="M235.5 276C252.345 276 266 262.345 266 245.5C266 228.655 252.345 215 235.5 215C218.655 215 205 228.655 205 245.5C205 262.345 218.655 276 235.5 276Z" fill="url(#paint2_linear_683_144)"/>
<path d="M235.5 268C247.9 268 258 257.9 258 245.5C258 233.1 247.9 223 235.5 223C223.1 223 213 233.1 213 245.5C213 257.9 223.1 268 235.5 268Z" fill="white"/>
<path fill-rule="evenodd" clip-rule="evenodd" d="M234.5 230.8C233.2 231 232 231.5 231.1 232.5C230.4 233.2 229.8 233.9 229.1 234.6C228.8 235 228.4 235.3 228 235.7C227.6 236.1 227.3 236.4 226.9 236.8C226.5 237.2 226.2 237.5 225.9 237.8C225.4 238.3 224.8 238.9 224.3 239.4C223.9 239.8 223.5 240.3 223.1 240.7C222.9 241 222.6 241.2 222.4 241.4C221.5 242.5 221 243.9 221 245.4C221 245.5 221 245.6 221 245.7C221 246.5 221.2 247.4 221.6 248.1C221.8 248.5 222.1 249 222.4 249.4C222.6 249.7 222.7 249.7 223 249.5L223.1 249.4C223.4 249.1 223.6 248.9 223.9 248.6C224.3 248.2 224.6 247.8 225 247.4C225.4 247 225.8 246.6 226.1 246.2C226.3 246 226.5 245.8 226.7 245.6C227.1 245.2 227.5 244.8 227.9 244.3C228.3 243.9 228.7 243.5 229.1 243.1C229.5 242.7 230 242.2 230.4 241.8C230.8 241.4 231.2 241 231.6 240.6C232.1 240.1 232.6 239.5 233.2 239C233.5 238.7 233.9 238.4 234.2 238C234.6 237.6 235.1 237.1 235.5 236.7C235.9 236.3 236.3 236 236.6 235.6C237.4 234.8 238.3 233.9 239.1 233C239.2 232.9 239.2 232.9 239.3 232.8C239.5 232.5 239.5 232.5 239.3 232.3C238.9 232 238.5 231.7 238.1 231.5C237.3 231.1 236.5 230.9 235.6 230.9C235.1 230.7 234.8 230.8 234.5 230.8ZM241.9 236.3C241.5 236.3 241.1 236.4 240.8 236.5C240.5 236.7 240.2 236.9 239.9 237.2L239.8 237.3L238.4 238.6C238 239 237.5 239.5 237 240C236.6 240.4 236.2 240.8 235.8 241.2C235.4 241.6 235 242 234.6 242.4C234.2 242.8 233.7 243.2 233.3 243.7L231.8 245.2L229 248C227.7 249.3 226.5 250.5 225.2 251.8C225 252 225 252.1 225.2 252.3C225.8 252.9 226.4 253.5 227 254.1C227.4 254.5 227.8 254.7 228.4 254.8C228.9 254.9 229.4 254.9 229.9 254.8C230.3 254.7 230.6 254.5 230.9 254.3L232.4 252.9C232.7 252.6 233.1 252.2 233.4 251.9C234.1 251.2 234.8 250.5 235.5 249.9C236.1 249.3 236.6 248.8 237.2 248.3L239.5 246C240.2 245.3 241 244.6 241.7 243.9C241.7 243.8 241.8 243.8 241.9 243.7C242 243.7 242.1 243.6 242.2 243.7C242.3 243.7 242.4 243.7 242.4 243.8C242.5 243.9 242.5 243.9 242.6 244C243 244.5 243.2 245.2 243.2 245.8C243.2 245.9 243.2 246 243.2 246.1C243.1 246.8 242.9 247.4 242.4 247.9C241.9 248.5 241.3 249 240.7 249.6C240.3 250 239.9 250.4 239.5 250.8C239 251.3 238.5 251.8 238 252.3C237.9 252.4 237.9 252.5 237.8 252.6L237.3 253.1C236.9 253.5 236.5 253.8 236.2 254.2C235.8 254.6 235.4 255 235 255.4L234.9 255.5C234.5 255.9 234 256.3 233.6 256.8C233.4 257 233.2 257.2 233 257.4C232.7 257.7 232.3 258.1 232 258.4C231.8 258.6 231.8 258.7 232 258.9C232.4 259.2 232.8 259.5 233.2 259.7C234.3 260.2 235.5 260.4 236.7 260.2C237.9 260.1 239 259.6 239.8 258.8C240.5 258.2 241.1 257.6 241.7 256.9C242.1 256.5 242.6 256 243.1 255.5L244.4 254.2C244.8 253.8 245.2 253.4 245.6 253C246 252.6 246.5 252.1 246.9 251.7C247.3 251.3 247.8 250.8 248.2 250.3C248.6 249.9 248.9 249.5 249.2 249.1C249.8 248.3 250.1 247.3 250.2 246.3C250.3 245.8 250.3 245.3 250.2 244.8C250.1 243.9 249.7 243.1 249.3 242.3C248.9 241.8 248.5 241.3 248 240.9C246.8 239.7 245.5 238.4 244.3 237.2C244 236.9 243.7 236.7 243.4 236.5C243 236.3 242.6 236.3 242.3 236.3H241.9Z" fill="url(#paint3_linear_683_144)"/>
<path d="M216 306C231.464 306 244 293.464 244 278C244 262.536 231.464 250 216 250C200.536 250 188 262.536 188 278C188 293.464 200.536 306 216 306Z" fill="url(#paint4_linear_683_144)"/>
<path d="M216 298.6C227.4 298.6 236.6 289.4 236.6 278C236.6 266.6 227.4 257.4 216 257.4C204.6 257.4 195.4 266.6 195.4 278C195.4 289.4 204.6 298.6 216 298.6Z" fill="white"/>
<path fill-rule="evenodd" clip-rule="evenodd" d="M215.1 264.5C213.9 264.6 212.8 265.2 211.9 266C211.3 266.6 210.7 267.3 210 267.9C209.7 268.2 209.4 268.5 209 268.9C208.7 269.2 208.3 269.6 208 269.9C207.7 270.2 207.4 270.5 207.1 270.9C206.6 271.4 206.1 271.9 205.6 272.4C205.2 272.8 204.9 273.2 204.5 273.6C204.3 273.8 204 274 203.8 274.3C203 275.3 202.5 276.6 202.5 278C202.5 278.1 202.5 278.2 202.5 278.2C202.5 279 202.7 279.7 203.1 280.4C203.3 280.8 203.6 281.2 203.8 281.6C204 281.9 204.1 281.9 204.4 281.7L204.5 281.6C204.7 281.4 205 281.1 205.2 280.9C205.5 280.5 205.9 280.2 206.2 279.8C206.5 279.4 206.9 279 207.3 278.7C207.5 278.5 207.6 278.4 207.8 278.2C208.2 277.8 208.5 277.4 208.9 277C209.3 276.6 209.6 276.3 210 275.9C210.4 275.5 210.8 275.1 211.2 274.7C211.6 274.3 211.9 273.9 212.3 273.6C212.8 273.1 213.2 272.6 213.7 272.1C214 271.8 214.3 271.5 214.6 271.2C215 270.8 215.4 270.4 215.8 270C216.2 269.6 216.5 269.3 216.8 269C217.6 268.2 218.3 267.4 219.1 266.6C219.1 266.6 219.2 266.5 219.2 266.4C219.4 266.2 219.4 266.1 219.2 265.9C218.8 265.6 218.5 265.4 218.1 265.2C217.4 264.9 216.6 264.7 215.8 264.7C215.6 264.5 215.3 264.5 215.1 264.5ZM221.9 269.6C221.5 269.6 221.2 269.7 220.9 269.8C220.6 269.9 220.3 270.1 220.1 270.4L220 270.5L218.7 271.7C218.3 272.1 217.8 272.6 217.4 273C217 273.4 216.7 273.7 216.3 274.1C215.9 274.5 215.6 274.9 215.2 275.2C214.8 275.6 214.4 276 214 276.4L212.6 277.8L210 280.4C208.8 281.6 207.7 282.7 206.6 283.9C206.4 284.1 206.4 284.1 206.6 284.4C207.2 285 207.7 285.5 208.2 286.1C208.5 286.4 209 286.7 209.4 286.8C209.8 286.9 210.3 286.9 210.8 286.8C211.1 286.7 211.4 286.6 211.7 286.3L213.1 285C213.4 284.7 213.7 284.4 214.1 284.1C214.7 283.5 215.4 282.8 216 282.2C216.5 281.7 217 281.2 217.6 280.7L219.7 278.6C220.4 277.9 221 277.3 221.7 276.6C221.7 276.5 221.8 276.5 221.9 276.4C222 276.4 222.1 276.4 222.1 276.4C222.2 276.4 222.3 276.4 222.3 276.5C222.4 276.5 222.4 276.6 222.4 276.7C222.7 277.2 222.9 277.8 222.9 278.4C222.9 278.5 222.9 278.6 222.9 278.7C222.8 279.3 222.6 279.9 222.2 280.3C221.7 280.8 221.2 281.3 220.7 281.8C220.3 282.2 220 282.5 219.6 282.9C219.1 283.4 218.7 283.8 218.2 284.3C218.1 284.4 218.1 284.5 218 284.5L217.5 285C217.2 285.3 216.8 285.7 216.5 286C216.2 286.3 215.8 286.8 215.4 287.1L215.3 287.2C214.9 287.6 214.5 288 214.1 288.4C213.9 288.6 213.7 288.8 213.6 288.9C213.3 289.2 213 289.5 212.7 289.8C212.5 290 212.5 290.1 212.7 290.3C213.1 290.6 213.4 290.8 213.8 291C214.8 291.4 215.9 291.6 217 291.5C218.1 291.4 219.1 290.9 219.9 290.2C220.5 289.7 221.1 289.1 221.6 288.5C222 288.1 222.4 287.6 222.9 287.2L224.1 286C224.5 285.6 224.8 285.3 225.2 284.9C225.6 284.5 226 284.1 226.4 283.7C226.8 283.3 227.2 282.9 227.6 282.4C227.9 282.1 228.2 281.7 228.5 281.3C229 280.5 229.3 279.6 229.4 278.7C229.5 278.2 229.5 277.8 229.4 277.3C229.3 276.5 229 275.7 228.5 275C228.2 274.5 227.8 274.1 227.4 273.7C226.3 272.6 225.1 271.4 224 270.3C223.8 270 223.5 269.8 223.1 269.7C222.8 269.6 222.4 269.5 222 269.5L221.9 269.6Z" fill="url(#paint5_linear_683_144)"/>
<path d="M69 152H61C58.8 152 57 153.8 57 156V185C57 187.2 58.8 189 61 189H69C71.2 189 73 187.2 73 185V156C73 153.8 71.2 152 69 152Z" fill="#E84649"/>
<path d="M69 154H61C58.8 154 57 155.8 57 158V197C57 199.2 58.8 201 61 201H69C71.2 201 73 199.2 73 197V158C73 155.8 71.2 154 69 154Z" fill="url(#paint6_linear_683_144)"/>
<path d="M155 60C154.9 60 131.8 60 131.8 60H131.7C95.4 60.4 66 112.8 66 177.5C66 242.1 95.3 294.5 131.4 295C131.5 295 154.5 295 154.6 295C154.7 295 154.8 295 154.9 295C191.4 295 220.9 242.4 220.9 177.5C220.9 112.6 191.5 60 155 60Z" fill="#505B67"/>
<path d="M131 295C167.451 295 197 242.393 197 177.5C197 112.607 167.451 60 131 60C94.5492 60 65 112.607 65 177.5C65 242.393 94.5492 295 131 295Z" fill="#606B77"/>
<path d="M196.9 170.4C196.7 163.2 196.1 156.2 195.1 149.4C195.1 149.2 195 148.9 195 148.9L110.8 289.4C110.8 289.4 111 289.5 111.1 289.6C114.8 291.7 118.7 293.2 122.7 294.1C122.8 294.1 123.1 294.2 123.1 294.2L196.9 170.9C196.9 170.9 196.9 170.6 196.9 170.4ZM187 115.3C179.2 93.2 167.5 76 153.5 67C153.4 66.9 153.2 66.8 153.2 66.8L68.7 216.3C68.7 216.3 68.7 216.5 68.8 216.7C73.6 240.8 82.7 261.3 94.4 275.3C94.5 275.4 94.6 275.5 94.6 275.5L187.2 115.8C187.2 115.7 187.1 115.5 187 115.3ZM131 60C95.1 60 65.9 111 65 174.6C65 174.8 65 175.1 65 175.1L131.8 60C131.8 60 131.3 60 131 60Z" fill="#636F7B"/>
<g opacity="0.6118">
<g opacity="0.6118">
<path opacity="0.6118" d="M133.9 151C124.6 151 117 164.7 117 181.5C117 198.3 124.6 212 133.9 212C143.2 212 150.8 198.3 150.8 181.5C150.8 164.7 143.3 151 133.9 151ZM134 198C129 198 125 190.8 125 182C125 173.2 129 166 134 166C139 166 143 173.2 143 182C143 190.8 139 198 134 198Z" fill="#363E46"/>
</g>
</g>
<path d="M127.1 151C127.1 151 121.2 151 121.1 151C111.8 151.1 104.3 164.7 104.3 181.5C104.3 198.3 111.8 211.9 121.1 212C121.1 212 127 212 127.1 212H127.2C136.5 212 144.1 198.3 144.1 181.5C144.1 164.7 136.4 151 127.1 151ZM125.5 197C121.4 197 118 190.1 118 181.5C118 172.9 121.4 166 125.5 166C129.6 166 133 172.9 133 181.5C133 190.1 129.6 197 125.5 197Z" fill="#9AAABD"/>
<path d="M120.9 151C111.6 151 104 164.7 104 181.5C104 198.3 111.6 212 120.9 212C130.2 212 137.8 198.3 137.8 181.5C137.8 164.7 130.3 151 120.9 151ZM121 198C116 198 112 190.8 112 182C112 173.2 116 166 121 166C126 166 130 173.2 130 182C130 190.8 126 198 121 198Z" fill="#D6E1EE"/>
<path d="M354 142H320C314.5 142 310 146.5 310 152V205C310 210.5 314.5 215 320 215H354C359.5 215 364 210.5 364 205V152C364 146.5 359.5 142 354 142Z" fill="#768290"/>
<path d="M354 144H320C314.5 144 310 148.5 310 154V207C310 212.5 314.5 217 320 217H354C359.5 217 364 212.5 364 207V154C364 148.5 359.5 144 354 144Z" fill="#606B78"/>
<path d="M355 149H319C316.8 149 315 150.8 315 153V159C315 161.2 316.8 163 319 163H355C357.2 163 359 161.2 359 159V153C359 150.8 357.2 149 355 149Z" fill="#505B67"/>
<path d="M327 154C325.9 154 325 154.9 325 156C325 157.1 325.9 158 327 158C328.1 158 329 157.1 329 156C329 154.9 328.1 154 327 154ZM334 154C332.9 154 332 154.9 332 156C332 157.1 332.9 158 334 158C335.1 158 336 157.1 336 156C336 154.9 335.1 154 334 154ZM341 154C339.9 154 339 154.9 339 156C339 157.1 339.9 158 341 158C342.1 158 343 157.1 343 156C343 154.9 342.1 154 341 154ZM348 154C346.9 154 346 154.9 346 156C346 157.1 346.9 158 348 158C349.1 158 350 157.1 350 156C350 154.9 349.1 154 348 154Z" fill="#CCD8E5"/>
<path d="M324 169H320C318.9 169 318 169.9 318 171V175C318 176.1 318.9 177 320 177H324C325.1 177 326 176.1 326 175V171C326 169.9 325.1 169 324 169ZM334 169H330C328.9 169 328 169.9 328 171V175C328 176.1 328.9 177 330 177H334C335.1 177 336 176.1 336 175V171C336 169.9 335.1 169 334 169ZM344 169H340C338.9 169 338 169.9 338 171V175C338 176.1 338.9 177 340 177H344C345.1 177 346 176.1 346 175V171C346 169.9 345.1 169 344 169ZM354 169H350C348.9 169 348 169.9 348 171V175C348 176.1 348.9 177 350 177H354C355.1 177 356 176.1 356 175V171C356 169.9 355.1 169 354 169ZM324 179H320C318.9 179 318 179.9 318 181V185C318 186.1 318.9 187 320 187H324C325.1 187 326 186.1 326 185V181C326 179.9 325.1 179 324 179ZM334 179H330C328.9 179 328 179.9 328 181V185C328 186.1 328.9 187 330 187H334C335.1 187 336 186.1 336 185V181C336 179.9 335.1 179 334 179ZM344 179H340C338.9 179 338 179.9 338 181V185C338 186.1 338.9 187 340 187H344C345.1 187 346 186.1 346 185V181C346 179.9 345.1 179 344 179ZM354 179H350C348.9 179 348 179.9 348 181V185C348 186.1 348.9 187 350 187H354C355.1 187 356 186.1 356 185V181C356 179.9 355.1 179 354 179ZM324 189H320C318.9 189 318 189.9 318 191V195C318 196.1 318.9 197 320 197H324C325.1 197 326 196.1 326 195V191C326 189.9 325.1 189 324 189ZM334 189H330C328.9 189 328 189.9 328 191V195C328 196.1 328.9 197 330 197H334C335.1 197 336 196.1 336 195V191C336 189.9 335.1 189 334 189ZM344 189H340C338.9 189 338 189.9 338 191V195C338 196.1 338.9 197 340 197H344C345.1 197 346 196.1 346 195V191C346 189.9 345.1 189 344 189ZM354 189H350C348.9 189 348 189.9 348 191V195C348 196.1 348.9 197 350 197H354C355.1 197 356 196.1 356 195V191C356 189.9 355.1 189 354 189ZM324 199H320C318.9 199 318 199.9 318 201V205C318 206.1 318.9 207 320 207H324C325.1 207 326 206.1 326 205V201C326 199.9 325.1 199 324 199ZM334 199H330C328.9 199 328 199.9 328 201V205C328 206.1 328.9 207 330 207H334C335.1 207 336 206.1 336 205V201C336 199.9 335.1 199 334 199ZM344 199H340C338.9 199 338 199.9 338 201V205C338 206.1 338.9 207 340 207H344C345.1 207 346 206.1 346 205V201C346 199.9 345.1 199 344 199ZM354 199H350C348.9 199 348 199.9 348 201V205C348 206.1 348.9 207 350 207H354C355.1 207 356 206.1 356 205V201C356 199.9 355.1 199 354 199Z" fill="#6A7786"/>
<path d="M318.5 19C322.6 19 326 15.6 326 11.5C326 7.4 322.6 4 318.5 4C314.4 4 311 7.4 311 11.5C311 15.6 314.4 19 318.5 19ZM65.5 12C58 12 52 18 52 25.5C52 33 58 39 65.5 39C73 39 79 33 79 25.5C79 18 73 12 65.5 12ZM335 377C333.9 377 333 377.9 333 379C333 380.1 333.9 381 335 381C336.1 381 337 380.1 337 379C337 377.9 336.1 377 335 377ZM22 290C14.3 290 8 296.3 8 304C8 311.7 14.3 318 22 318C29.7 318 36 311.7 36 304C36 296.3 29.7 290 22 290ZM294.5 277C268.8 277 248 297.8 248 323.5C248 349.2 268.8 370 294.5 370C320.2 370 341 349.2 341 323.5C341 297.8 320.2 277 294.5 277Z" fill="#404853"/>
<defs>
<linearGradient id="paint0_linear_683_144" x1="150.998" y1="260.002" x2="219.018" y2="260.002" gradientUnits="userSpaceOnUse">
<stop stop-color="#F83A3B"/>
<stop offset="1" stop-color="#F79915"/>
</linearGradient>
<linearGradient id="paint1_linear_683_144" x1="198.71" y1="260.002" x2="166.188" y2="260.002" gradientUnits="userSpaceOnUse">
<stop stop-color="#F83A3B"/>
<stop offset="1" stop-color="#F79915"/>
</linearGradient>
<linearGradient id="paint2_linear_683_144" x1="205" y1="245.5" x2="266" y2="245.5" gradientUnits="userSpaceOnUse">
<stop stop-color="#F83A3B"/>
<stop offset="1" stop-color="#F79915"/>
</linearGradient>
<linearGradient id="paint3_linear_683_144" x1="247.788" y1="245.5" x2="218.622" y2="245.5" gradientUnits="userSpaceOnUse">
<stop stop-color="#F83A3B"/>
<stop offset="1" stop-color="#F79915"/>
</linearGradient>
<linearGradient id="paint4_linear_683_144" x1="187.981" y1="278.003" x2="243.994" y2="278.003" gradientUnits="userSpaceOnUse">
<stop stop-color="#F83A3B"/>
<stop offset="1" stop-color="#F79915"/>
</linearGradient>
<linearGradient id="paint5_linear_683_144" x1="227.271" y1="278.003" x2="200.489" y2="278.003" gradientUnits="userSpaceOnUse">
<stop stop-color="#F83A3B"/>
<stop offset="1" stop-color="#F79915"/>
</linearGradient>
<linearGradient id="paint6_linear_683_144" x1="57" y1="177.5" x2="73" y2="177.5" gradientUnits="userSpaceOnUse">
<stop stop-color="#F83A3B"/>
<stop offset="1" stop-color="#F79915"/>
</linearGradient>
</defs>
</svg>
