<svg width="351" height="351" viewBox="0 0 351 351" fill="none" xmlns="http://www.w3.org/2000/svg">
<g clip-path="url(#clip0_673_86)">
<path d="M280.154 9.84437C280.154 4.59437 275.893 0.333496 270.643 0.333496C265.393 0.333496 261.132 4.59437 261.132 9.84437C261.132 15.0944 265.393 19.3552 270.643 19.3552C275.893 19.3552 280.154 15.0944 280.154 9.84437ZM38.5777 56.1306C29.1176 56.1306 21.4582 63.79 21.4582 73.2502C21.4582 82.7103 29.1176 90.3697 38.5777 90.3697C48.0379 90.3697 55.6973 82.7103 55.6973 73.2502C55.6973 63.79 48.0379 56.1306 38.5777 56.1306ZM16.3857 327.507C10.0832 327.507 4.97266 332.618 4.97266 338.92C4.97266 345.223 10.0832 350.334 16.3857 350.334C22.6882 350.334 27.7987 345.223 27.7987 338.92C27.7987 332.618 22.6882 327.507 16.3857 327.507ZM276.349 265.37C274.955 265.37 273.813 266.511 273.813 267.906C273.813 269.301 274.955 270.442 276.349 270.442C277.744 270.442 278.886 269.301 278.886 267.906C278.886 266.511 277.744 265.37 276.349 265.37Z" fill="#404853"/>
<path d="M156.621 16.7402C78.4295 16.7402 15.2266 79.9431 15.2266 158.135C15.2266 236.327 78.4295 299.53 156.621 299.53C234.814 299.53 298.016 236.327 298.016 158.135C298.016 79.9431 234.814 16.7402 156.621 16.7402ZM113.937 36.0029C106.48 46.4649 100.114 57.5102 94.8008 69.0881H62.7048C76.7048 54.2765 94.2175 42.8254 113.937 36.0029ZM52.5853 81.1098H89.7157C80.9784 103.606 76.1849 127.612 75.4874 152.124H27.4258C28.6432 125.583 37.7863 101.121 52.5853 81.1098ZM52.5853 235.161C37.7863 215.15 28.6432 190.688 27.4258 164.146H75.4874C76.1849 188.671 81.1559 212.664 89.944 235.161H52.5853ZM62.7048 247.195H95.0925C100.469 258.76 106.835 269.92 114.178 280.394C94.395 273.559 76.7556 262.057 62.7048 247.195ZM150.611 287.382C144.6 287.09 138.64 286.392 132.857 285.353C123.257 273.496 115.04 260.713 108.395 247.246H150.611V287.382ZM150.611 235.161H102.891C93.5834 212.728 88.2574 188.722 87.5092 164.146H150.598L150.611 235.161ZM150.611 152.124H87.5092C88.2574 127.599 93.52 103.543 102.777 81.1098H150.598L150.611 152.124ZM150.661 69.0754H108.281C114.989 55.4812 123.207 42.6986 132.857 30.9685C138.64 29.8652 144.6 29.2312 150.674 28.9395L150.661 69.0754ZM260.658 81.1098C275.457 101.121 284.663 125.519 285.817 152.124H237.756C237.058 127.599 232.087 103.606 223.299 81.1098H260.658ZM250.538 69.0754H218.15C212.774 57.5102 206.408 46.3507 199.015 35.8761C218.848 42.7112 236.487 54.2131 250.538 69.0754ZM162.632 28.9395C168.643 29.2312 174.603 29.9286 180.386 30.9685C189.986 42.8254 198.203 55.608 204.848 69.0754H162.632V28.9395ZM162.632 81.1098H210.339C219.647 103.492 224.973 127.548 225.721 152.124H162.632V81.1098ZM162.632 164.146H225.734C224.986 188.671 219.723 212.728 210.466 235.161H162.645L162.632 164.146ZM162.582 287.331V247.195H204.975C198.266 260.789 190.049 273.572 180.399 285.302C174.603 286.405 168.656 287.039 162.582 287.331ZM199.015 280.394C206.357 269.932 212.723 258.76 218.036 247.195H250.589C236.487 262.057 218.848 273.559 199.015 280.394ZM223.122 235.161C231.795 212.664 236.716 188.659 237.692 164.146H285.868C284.65 190.688 275.52 215.15 260.708 235.161H223.122Z" fill="#555F6A"/>
<path d="M156.957 243.821C204.232 243.821 242.555 205.497 242.555 158.223C242.555 110.948 204.232 72.625 156.957 72.625C109.683 72.625 71.3594 110.948 71.3594 158.223C71.3594 205.497 109.683 243.821 156.957 243.821Z" fill="#555F6A"/>
<path d="M157.066 233.595C198.738 233.595 232.519 199.813 232.519 158.142C232.519 116.47 198.738 82.689 157.066 82.689C115.395 82.689 81.6133 116.47 81.6133 158.142C81.6133 199.813 115.395 233.595 157.066 233.595Z" fill="#FF4637"/>
<path fill-rule="evenodd" clip-rule="evenodd" d="M143.677 124.831C162.754 116.93 184.655 126.001 192.557 145.077C200.458 164.152 191.386 186.055 172.311 193.956C153.235 201.858 131.333 192.786 123.432 173.71C115.53 154.635 124.602 132.732 143.677 124.831V124.831Z" fill="white"/>
<path fill-rule="evenodd" clip-rule="evenodd" d="M159.244 140.38C157.428 140.59 155.739 141.418 154.462 142.727C153.504 143.676 152.596 144.651 151.624 145.61C151.138 146.108 150.647 146.594 150.155 147.086C149.664 147.579 149.121 148.102 148.611 148.619C148.1 149.135 147.676 149.589 147.204 150.069C146.466 150.807 145.727 151.545 144.989 152.291C144.423 152.876 143.869 153.481 143.309 154.065C142.979 154.414 142.623 154.738 142.312 155.105C141.028 156.672 140.326 158.635 140.326 160.66L140.334 161.02C140.36 162.183 140.665 163.323 141.224 164.343C141.542 164.96 141.91 165.549 142.325 166.106C142.599 166.492 142.798 166.485 143.159 166.187L143.352 166C143.708 165.626 144.056 165.252 144.417 164.879C144.928 164.343 145.451 163.809 145.961 163.266C146.472 162.724 147.026 162.127 147.561 161.567C147.817 161.293 148.089 161.04 148.346 160.77C148.894 160.191 149.429 159.594 149.977 159.021C150.524 158.449 151.079 157.913 151.615 157.353C152.151 156.793 152.81 156.107 153.413 155.485C154.016 154.863 154.528 154.339 155.088 153.767C155.817 153.013 156.527 152.241 157.248 151.487C157.696 151.027 158.157 150.585 158.605 150.13C159.228 149.508 159.807 148.885 160.417 148.263C161.028 147.641 161.482 147.223 162.005 146.687C163.174 145.506 164.342 144.318 165.507 143.123L165.718 142.886C166.005 142.525 166.029 142.444 165.675 142.189C165.134 141.763 164.555 141.387 163.944 141.068C162.866 140.564 161.689 140.302 160.499 140.302C160.101 140.302 159.639 140.331 159.244 140.38ZM169.548 148.044H169.473C168.962 148.044 168.457 148.156 167.994 148.371C167.531 148.586 167.12 148.899 166.79 149.289L166.603 149.476L164.698 151.344C164.076 151.967 163.403 152.646 162.749 153.299C162.208 153.841 161.666 154.37 161.131 154.912C160.597 155.454 160.023 156.058 159.444 156.624C158.865 157.19 158.249 157.784 157.651 158.367L155.528 160.508L151.581 164.456C149.837 166.207 148.096 167.954 146.357 169.698C146.022 170.028 146.015 170.071 146.357 170.426C147.191 171.27 148.038 172.107 148.847 172.957C149.348 173.488 150.008 173.84 150.728 173.959C151.407 174.096 152.108 174.072 152.776 173.891C153.277 173.767 153.739 173.521 154.121 173.174L156.188 171.178C156.673 170.712 157.166 170.251 157.645 169.777C158.603 168.828 159.549 167.872 160.508 166.929C161.286 166.164 162.084 165.404 162.874 164.639L166.115 161.48C167.123 160.489 168.138 159.494 169.159 158.503L169.432 158.27L169.786 158.213L170.119 158.348L170.334 158.635C170.853 159.393 171.13 160.29 171.13 161.209C171.13 161.366 171.122 161.523 171.106 161.679C171.022 162.605 170.64 163.479 170.017 164.169C169.27 164.973 168.473 165.732 167.697 166.504C167.143 167.052 166.577 167.588 166.022 168.141C165.306 168.851 164.602 169.574 163.886 170.283C163.781 170.402 163.682 170.526 163.57 170.638L162.866 171.367C162.339 171.894 161.802 172.407 161.284 172.935C160.766 173.463 160.172 174.081 159.618 174.658L159.463 174.801C158.839 175.38 158.267 175.961 157.675 176.544C157.396 176.818 157.128 177.098 156.853 177.372C156.381 177.852 155.895 178.321 155.44 178.811C155.161 179.103 155.161 179.283 155.491 179.514C156.033 179.93 156.61 180.299 157.215 180.615C158.721 181.296 160.391 181.534 162.027 181.3C163.651 181.107 165.175 180.413 166.386 179.314C167.307 178.505 168.129 177.596 168.988 176.725C169.61 176.101 170.234 175.436 170.899 174.794L172.698 172.982C173.247 172.429 173.788 171.874 174.343 171.327C174.897 170.779 175.587 170.125 176.21 169.508C176.832 168.891 177.455 168.264 178.077 167.603C178.574 167.098 179.032 166.557 179.449 165.984C180.225 164.811 180.71 163.468 180.863 162.069C180.947 161.374 180.947 160.672 180.863 159.977C180.678 158.74 180.23 157.558 179.549 156.509C179.059 155.767 178.473 155.093 177.806 154.505C176.082 152.793 174.363 151.069 172.676 149.319C172.309 148.91 171.859 148.582 171.357 148.358C170.854 148.134 170.31 148.018 169.76 148.017L169.548 148.044Z" fill="#FF4637"/>
<path d="M301.077 28.1567C276.565 28.1567 256.693 48.0281 256.693 72.5408C256.693 81.7727 259.509 90.3451 264.327 97.4466C264.416 97.5734 264.594 97.8397 264.594 97.8397C264.594 97.8397 258.989 114.313 259.978 115.289C260.967 116.265 278.467 110.749 278.467 110.749C278.467 110.749 278.822 110.965 279 111.066C285.505 114.794 293.038 116.938 301.077 116.938C325.59 116.938 345.462 97.0662 345.462 72.5535C345.462 48.0281 325.59 28.1567 301.077 28.1567V28.1567Z" fill="#606B78"/>
<path d="M301.186 38.4106C282.279 38.4106 266.947 53.7422 266.947 72.6498C266.947 79.7639 269.116 86.3835 272.844 91.8617C272.907 91.9632 273.047 92.1661 273.047 92.1661C273.047 92.1661 268.723 104.86 269.483 105.621C270.244 106.382 283.75 102.121 283.75 102.121C283.75 102.121 284.029 102.286 284.168 102.362C289.177 105.24 294.985 106.889 301.186 106.889C320.094 106.889 335.426 91.5574 335.426 72.6498C335.426 53.7422 320.094 38.4106 301.186 38.4106V38.4106Z" fill="#2D2F38"/>
<path d="M43.5374 268.22C43.4867 268.131 43.3853 267.967 43.3853 267.967C43.3853 267.967 45.9849 259.711 45.5284 259.255C45.0718 258.798 37.2983 261.436 37.2983 261.436C37.2983 261.436 37.1715 261.347 37.1081 261.309C33.7603 259.039 29.715 257.708 25.3653 257.708C13.8128 257.708 4.44141 267.079 4.44141 278.631C4.44141 290.184 13.8128 299.555 25.3653 299.555C36.9179 299.555 46.3019 290.184 46.3019 278.631C46.3019 274.84 45.3001 271.289 43.5374 268.22V268.22Z" fill="#606B78"/>
</g>
<defs>
<clipPath id="clip0_673_86">
<rect width="350" height="350" fill="white" transform="translate(0.339844 0.333496)"/>
</clipPath>
</defs>
</svg>
