<svg width="300" height="300" viewBox="0 0 300 300" fill="none" xmlns="http://www.w3.org/2000/svg">
<mask id="mask0_346_98" style="mask-type:alpha" maskUnits="userSpaceOnUse" x="0" y="0" width="300" height="300">
<rect width="300" height="300" fill="#C4C4C4"/>
</mask>
<g mask="url(#mask0_346_98)">
<g filter="url(#filter0_d_346_98)">
<circle cx="150" cy="150" r="130" fill="#FF4637"/>
</g>
<g filter="url(#filter1_d_346_98)">
<path d="M150 225C191.421 225 225 191.421 225 150C225 108.579 191.421 75 150 75C108.579 75 75 108.579 75 150C75 191.421 108.579 225 150 225Z" fill="white"/>
</g>
<path fill-rule="evenodd" clip-rule="evenodd" d="M146.357 101.187C142.002 101.689 137.953 103.676 134.892 106.813C132.593 109.089 130.416 111.426 128.087 113.724C126.921 114.92 125.743 116.083 124.565 117.264C123.386 118.445 122.086 119.699 120.863 120.938C119.639 122.178 118.622 123.265 117.489 124.415C115.719 126.185 113.949 127.955 112.179 129.743C110.821 131.147 109.494 132.596 108.151 133.996C107.36 134.833 106.507 135.61 105.761 136.49C102.683 140.246 101 144.952 101 149.808C101 150.094 101 150.387 101.018 150.67C101.081 153.459 101.813 156.192 103.152 158.638C103.914 160.117 104.797 161.53 105.792 162.864C106.449 163.789 106.927 163.774 107.792 163.058C107.957 162.921 108.112 162.771 108.255 162.611C109.107 161.713 109.941 160.818 110.809 159.923C112.033 158.638 113.287 157.356 114.511 156.056C115.734 154.757 117.062 153.326 118.347 151.983C118.959 151.325 119.611 150.718 120.228 150.071C121.54 148.683 122.825 147.252 124.137 145.879C125.45 144.506 126.78 143.221 128.064 141.878C129.349 140.536 130.929 138.892 132.376 137.4C133.822 135.908 135.048 134.654 136.391 133.281C138.138 131.473 139.84 129.622 141.57 127.816C142.644 126.711 143.749 125.652 144.824 124.562C146.316 123.07 147.704 121.578 149.168 120.086C150.633 118.594 151.72 117.593 152.974 116.308C155.777 113.476 158.577 110.627 161.372 107.762C161.552 107.584 161.721 107.395 161.877 107.195C162.565 106.328 162.623 106.136 161.774 105.524C160.476 104.502 159.087 103.602 157.624 102.836C155.038 101.626 152.218 101 149.363 101H149.222C148.268 101 147.315 101.06 146.369 101.18L146.354 101.164L146.357 101.187ZM171.059 119.56H170.879C169.655 119.561 168.445 119.828 167.334 120.344C166.223 120.86 165.237 121.611 164.447 122.547C164.305 122.703 164.156 122.853 163.999 122.994L159.432 127.473C157.94 128.967 156.327 130.593 154.759 132.161C153.462 133.458 152.162 134.727 150.88 136.027C149.598 137.327 148.223 138.773 146.834 140.131C145.446 141.489 143.969 142.913 142.536 144.311L137.446 149.444L127.983 158.909C123.803 163.106 119.628 167.296 115.459 171.476C114.655 172.268 114.64 172.371 115.459 173.221C117.459 175.244 119.49 177.252 121.429 179.29C122.629 180.562 124.213 181.405 125.938 181.692C127.565 182.019 129.246 181.963 130.848 181.528C132.048 181.231 133.156 180.641 134.072 179.811L139.028 175.024C140.192 173.906 141.373 172.801 142.521 171.666C144.819 169.39 147.087 167.099 149.386 164.839C151.252 163.003 153.164 161.182 155.058 159.346L162.828 151.773C165.246 149.399 167.678 147.011 170.126 144.637C170.289 144.395 170.516 144.201 170.781 144.079C171.046 143.956 171.34 143.908 171.63 143.941C171.921 143.973 172.197 144.085 172.428 144.263C172.66 144.442 172.838 144.68 172.943 144.953C174.187 146.77 174.853 148.921 174.852 151.123C174.852 151.5 174.832 151.876 174.794 152.251C174.593 154.471 173.677 156.566 172.184 158.221C170.391 160.148 168.482 161.968 166.621 163.819C165.294 165.132 163.936 166.416 162.606 167.744C160.889 169.446 159.202 171.178 157.485 172.88C157.232 173.163 156.995 173.461 156.727 173.729L155.04 175.477C153.776 176.741 152.489 177.97 151.247 179.237C150.005 180.504 148.579 181.985 147.252 183.369C147.133 183.503 146.999 183.591 146.88 183.71C145.386 185.098 144.012 186.491 142.594 187.89C141.924 188.547 141.282 189.217 140.624 189.875C139.491 191.025 138.326 192.151 137.236 193.324C136.566 194.024 136.566 194.457 137.357 195.01C138.657 196.008 140.04 196.891 141.491 197.65C145.102 199.283 149.104 199.852 153.027 199.291C156.921 198.829 160.574 197.165 163.478 194.53C165.686 192.591 167.658 190.411 169.716 188.322C171.208 186.828 172.703 185.232 174.298 183.695L178.612 179.35C179.927 178.023 181.224 176.693 182.554 175.38C183.884 174.068 185.538 172.5 187.03 171.021C188.522 169.542 190.016 168.037 191.508 166.454C192.698 165.243 193.797 163.946 194.796 162.573C196.658 159.759 197.82 156.541 198.186 153.186C198.389 151.52 198.389 149.836 198.186 148.17C197.742 145.205 196.668 142.37 195.036 139.855C193.862 138.076 192.457 136.461 190.858 135.051C186.724 130.947 182.602 126.813 178.559 122.617C177.678 121.636 176.6 120.851 175.395 120.314C174.191 119.776 172.886 119.498 171.567 119.497H171.512L171.064 119.558L171.059 119.56Z" fill="#FF4637"/>
</g>
<defs>
<filter id="filter0_d_346_98" x="0" y="0" width="300" height="300" filterUnits="userSpaceOnUse" color-interpolation-filters="sRGB">
<feFlood flood-opacity="0" result="BackgroundImageFix"/>
<feColorMatrix in="SourceAlpha" type="matrix" values="0 0 0 0 0 0 0 0 0 0 0 0 0 0 0 0 0 0 127 0" result="hardAlpha"/>
<feOffset/>
<feGaussianBlur stdDeviation="10"/>
<feComposite in2="hardAlpha" operator="out"/>
<feColorMatrix type="matrix" values="0 0 0 0 1 0 0 0 0 0.27451 0 0 0 0 0.215686 0 0 0 1 0"/>
<feBlend mode="normal" in2="BackgroundImageFix" result="effect1_dropShadow_346_98"/>
<feBlend mode="normal" in="SourceGraphic" in2="effect1_dropShadow_346_98" result="shape"/>
</filter>
<filter id="filter1_d_346_98" x="65" y="69" width="170" height="170" filterUnits="userSpaceOnUse" color-interpolation-filters="sRGB">
<feFlood flood-opacity="0" result="BackgroundImageFix"/>
<feColorMatrix in="SourceAlpha" type="matrix" values="0 0 0 0 0 0 0 0 0 0 0 0 0 0 0 0 0 0 127 0" result="hardAlpha"/>
<feOffset dy="4"/>
<feGaussianBlur stdDeviation="5"/>
<feComposite in2="hardAlpha" operator="out"/>
<feColorMatrix type="matrix" values="0 0 0 0 0 0 0 0 0 0 0 0 0 0 0 0 0 0 0.25 0"/>
<feBlend mode="normal" in2="BackgroundImageFix" result="effect1_dropShadow_346_98"/>
<feBlend mode="normal" in="SourceGraphic" in2="effect1_dropShadow_346_98" result="shape"/>
</filter>
</defs>
</svg>
